# xmcd
# 
# Track frame offsets:
#     187
#     21557
#     43350
#     64837
# 
# Disc length: 1109
# 
# Revision: 0
# Processed by: cddbd v1.5.2PL0 Copyright (c) Steve Scherf et al.
# Submitted via: fre:ac v1.0.31
# 
DISCID=39045304
DTITLE=松田聖子 - Gone with the rain
DYEAR=1997
DGENRE=JPop
TTITLE0=Gone with the rain
TTITLE1=Gone with the rain (Candle Mix)
TTITLE2=Gone with the rain (Original Backing Track)
TTITLE3=Good For You (Sweetest Mix)
EXTD=YEAR: 1997
EXTT0=
EXTT1=
EXTT2=
EXTT3=
PLAYORDER=
